<svg width="32" height="33" viewBox="0 0 32 33" fill="none" xmlns="http://www.w3.org/2000/svg">
<path d="M3.72727 1.04004C2.23545 1.04004 1 2.27549 1 3.76731V28.3128C1 29.8046 2.23545 31.04 3.72727 31.04H28.2727C29.7645 31.04 31 29.8046 31 28.3128V3.76731C31 2.27549 29.7645 1.04004 28.2727 1.04004H3.72727ZM3.72727 3.76731H28.2727V28.3128H21.1982V19.1082H24.7355L25.2468 15.0173H21.1995V12.3746C21.1995 11.1828 21.4914 10.3728 23.2014 10.3728H25.4173V6.66504C25.0395 6.61731 23.7291 6.53686 22.2223 6.53686C19.0791 6.53686 16.9382 8.42822 16.9382 11.9491V15.0173H13.3586V19.1082H16.9368V28.3128H3.72727V3.76731Z" fill="white"/>
</svg>
